<svg xmlns="http://www.w3.org/2000/svg" width="512" height="512" viewBox="0 0 31.178 31.178"><g fill="#F5F5F5"><circle cx="5.042" cy="5.721" r="3.866"/><path d="M30.779 6.78h-9.346V5.722h-2.479V6.78H9.446v1.275h.631v2.806l-1.452-.692H6.449l-1.474 1.709-1.426-1.709-3.133.582-.2 6.949h1.328l.072 1.443h.202v8.412h-.267L0 27.893v1.43h1.321l1.542-.251.014.251h1.708v-8.649h.973v8.649h1.708l.014-.251 1.542.251h1.321v-1.43l-1.553-.336h-.265v-8.412h.245l.316-6.4 1.191.539v7.355h9.136v2.343l-5.042 5.688h1.812l3.404-3.844v3.844h1.041v-3.84l3.399 3.84h1.841l-5.07-5.688v-2.343H30.78V8.056h.398V6.78h-.399zm-.892 12.92H10.97v-6.013l3.717 1.682-.014-2.317-3.703-1.765V8.056h18.917V19.7z"/><path d="M18.396 13.728v2.915s1.058-.367 2.09-.012c1.031.356 2.777 1.406 2.777 1.406s.532-.867 1.156-1.269l1.104-.709v-2.254l-1.922 1.698-5.205-1.775z"/><path d="M16.404 15.174h-.377v1.596h1.321v-1.596h-.398v-2.215l6.585 2.11 4.192-3.739-6.815-1.964-5.357 3.146.849.273z"/></g></svg>